<?xml version="1.0" encoding="UTF-8"?>
<svg xmlns="http://www.w3.org/2000/svg"
     viewBox="0 0 900 420"
     width="900" height="420"
     style="font-family:'Share Tech Mono',monospace;background:#080c10">

  <defs>
    <linearGradient id="g-hp" x1="0" y1="0" x2="1" y2="0">
      <stop offset="0%"   stop-color="#00b4ff" stop-opacity="0.85"/>
      <stop offset="100%" stop-color="#ff7043" stop-opacity="0.85"/>
    </linearGradient>
    <linearGradient id="g-bp" x1="0" y1="0" x2="1" y2="0">
      <stop offset="0%"   stop-color="#aa80ff" stop-opacity="0.7"/>
      <stop offset="100%" stop-color="#00b4ff" stop-opacity="0.6"/>
    </linearGradient>
    <filter id="f-glow">
      <feGaussianBlur stdDeviation="3" result="blur"/>
      <feMerge><feMergeNode in="blur"/><feMergeNode in="SourceGraphic"/></feMerge>
    </filter>
    <!-- Grille de fond -->
    <pattern id="grid" width="40" height="40" patternUnits="userSpaceOnUse">
      <path d="M 40 0 L 0 0 0 40" fill="none" stroke="rgba(0,180,255,0.04)" stroke-width="1"/>
    </pattern>
  </defs>

  <!-- Fond grille -->
  <rect width="900" height="420" fill="url(#grid)"/>

  <!-- ── TITRE ─────────────────────────────────────────────────── -->
  <text x="16" y="22" fill="#3a5a7a" font-size="10" letter-spacing="2">
    SYNOPTIQUE GTA — SCHÉMA DE RÉFÉRENCE
  </text>
  <rect x="700" y="8" width="185" height="20" rx="3"
        fill="#00e67622" stroke="#00e676" stroke-width="1"/>
  <text x="792" y="21" fill="#00e676" font-size="9" text-anchor="middle" letter-spacing="1">
    ÉTAT NOMINAL
  </text>

  <!-- ── CHAUDIÈRE ──────────────────────────────────────────────── -->
  <rect x="20" y="60" width="110" height="130" rx="6"
        fill="#0d1520" stroke="#00b4ff" stroke-width="1.5" filter="url(#f-glow)"/>
  <text x="75" y="78" fill="#3a5a7a" font-size="8" text-anchor="middle" letter-spacing="1">CHAUDIÈRE</text>
  <text x="75" y="100" fill="#ff7043" font-size="20" text-anchor="middle">🔥</text>
  <text x="75" y="120" fill="#00b4ff" font-size="12" text-anchor="middle" font-weight="700">60.0 bar</text>
  <text x="75" y="134" fill="#ff7043" font-size="11" text-anchor="middle">486 °C</text>
  <text x="75" y="148" fill="#6a96bb" font-size="10" text-anchor="middle">115 T/h</text>
  <text x="75" y="162" fill="#3a5a7a" font-size="9" text-anchor="middle">Vapeur HP</text>
  <!-- Barre pression -->
  <rect x="30" y="175" width="90" height="5" rx="2" fill="#1e3a5f"/>
  <rect x="30" y="175" width="45" height="5" rx="2" fill="#00b4ff"/>

  <!-- ── TUYAU HP → V1 ──────────────────────────────────────────── -->
  <line x1="130" y1="125" x2="175" y2="125"
        stroke="url(#g-hp)" stroke-width="8" stroke-linecap="round"/>

  <!-- ── VANNE V1 ────────────────────────────────────────────────── -->
  <polygon points="175,113 195,125 175,137" fill="#00b4ff" opacity="0.9"/>
  <polygon points="215,113 195,125 215,137" fill="#00b4ff" opacity="0.9"/>
  <line x1="195" y1="113" x2="195" y2="100" stroke="#00b4ff" stroke-width="2"/>
  <rect x="185" y="96" width="20" height="8" rx="2" fill="#00b4ff" opacity="0.8"/>
  <text x="195" y="92" fill="#00b4ff" font-size="9" text-anchor="middle">V1</text>
  <text x="195" y="152" fill="#00b4ff" font-size="9" text-anchor="middle">100%</text>

  <!-- ── TUYAU V1 → TURBINE HP ──────────────────────────────────── -->
  <line x1="215" y1="125" x2="260" y2="125"
        stroke="url(#g-hp)" stroke-width="8" stroke-linecap="round"/>

  <!-- ── TURBINE HP ─────────────────────────────────────────────── -->
  <rect x="260" y="80" width="90" height="90" rx="8"
        fill="#0d1520" stroke="#aa80ff" stroke-width="1.5"/>
  <text x="305" y="95" fill="#3a5a7a" font-size="8" text-anchor="middle" letter-spacing="1">TURBINE HP</text>
  <circle cx="305" cy="130" r="28" fill="none" stroke="#aa80ff" stroke-width="1.5" opacity="0.5"/>
  <circle cx="305" cy="130" r="18" fill="none" stroke="#aa80ff" stroke-width="2"/>
  <circle cx="305" cy="130" r="5"  fill="#aa80ff" opacity="0.9"/>
  <!-- Pales statiques -->
  <line x1="305" y1="104" x2="305" y2="112" stroke="#aa80ff" stroke-width="3" stroke-linecap="round"/>
  <line x1="305" y1="148" x2="305" y2="156" stroke="#aa80ff" stroke-width="3" stroke-linecap="round"/>
  <line x1="279" y1="130" x2="287" y2="130" stroke="#aa80ff" stroke-width="3" stroke-linecap="round"/>
  <line x1="323" y1="130" x2="331" y2="130" stroke="#aa80ff" stroke-width="3" stroke-linecap="round"/>
  <line x1="286" y1="111" x2="292" y2="117" stroke="#aa80ff" stroke-width="2" stroke-linecap="round"/>
  <line x1="318" y1="143" x2="324" y2="149" stroke="#aa80ff" stroke-width="2" stroke-linecap="round"/>
  <text x="305" y="176" fill="#aa80ff" font-size="10" text-anchor="middle">6435 RPM</text>

  <!-- ── TUYAU HP → V2 ──────────────────────────────────────────── -->
  <line x1="350" y1="125" x2="420" y2="125"
        stroke="#aa80ff" stroke-width="6" stroke-linecap="round" opacity="0.8"/>

  <!-- ── VANNE V2 ────────────────────────────────────────────────── -->
  <polygon points="420,113 440,125 420,137" fill="#00b4ff" opacity="0.9"/>
  <polygon points="460,113 440,125 460,137" fill="#00b4ff" opacity="0.9"/>
  <line x1="440" y1="113" x2="440" y2="100" stroke="#00b4ff" stroke-width="2"/>
  <rect x="430" y="96" width="20" height="8" rx="2" fill="#00b4ff" opacity="0.8"/>
  <text x="440" y="92" fill="#00b4ff" font-size="9" text-anchor="middle">V2</text>
  <text x="440" y="152" fill="#00b4ff" font-size="9" text-anchor="middle">100%</text>

  <!-- ── TURBINE BP ─────────────────────────────────────────────── -->
  <line x1="460" y1="125" x2="490" y2="125"
        stroke="#aa80ff" stroke-width="6" stroke-linecap="round" opacity="0.8"/>
  <rect x="490" y="80" width="90" height="90" rx="8"
        fill="#0d1520" stroke="#7c60cc" stroke-width="1.5"/>
  <text x="535" y="95" fill="#3a5a7a" font-size="8" text-anchor="middle" letter-spacing="1">TURBINE BP</text>
  <circle cx="535" cy="130" r="22" fill="none" stroke="#7c60cc" stroke-width="1.5" opacity="0.6"/>
  <circle cx="535" cy="130" r="14" fill="none" stroke="#7c60cc" stroke-width="2"/>
  <circle cx="535" cy="130" r="4"  fill="#7c60cc" opacity="0.8"/>
  <line x1="535" y1="108" x2="535" y2="116" stroke="#7c60cc" stroke-width="2.5" stroke-linecap="round"/>
  <line x1="535" y1="144" x2="535" y2="152" stroke="#7c60cc" stroke-width="2.5" stroke-linecap="round"/>
  <line x1="513" y1="130" x2="521" y2="130" stroke="#7c60cc" stroke-width="2.5" stroke-linecap="round"/>
  <line x1="549" y1="130" x2="557" y2="130" stroke="#7c60cc" stroke-width="2.5" stroke-linecap="round"/>
  <text x="535" y="176" fill="#7c60cc" font-size="10" text-anchor="middle">4.2 bar BP</text>

  <!-- ── ARBRE COMMUN ───────────────────────────────────────────── -->
  <line x1="350" y1="212" x2="580" y2="212"
        stroke="#1e3a5f" stroke-width="3" stroke-dasharray="8,4"/>
  <text x="465" y="227" fill="#1e3a5f" font-size="8" text-anchor="middle" letter-spacing="1">
    ARBRE COMMUN
  </text>

  <!-- ── VANNE V3 ────────────────────────────────────────────────── -->
  <line x1="580" y1="125" x2="620" y2="125"
        stroke="#00e5ff" stroke-width="5" stroke-linecap="round" opacity="0.7"/>
  <polygon points="620,114 640,125 620,136" fill="#00b4ff" opacity="0.9"/>
  <polygon points="660,114 640,125 660,136" fill="#00b4ff" opacity="0.9"/>
  <line x1="640" y1="114" x2="640" y2="100" stroke="#00b4ff" stroke-width="2"/>
  <rect x="630" y="96" width="20" height="8" rx="2" fill="#00b4ff" opacity="0.8"/>
  <text x="640" y="92" fill="#00b4ff" font-size="9" text-anchor="middle">V3</text>
  <text x="640" y="152" fill="#00b4ff" font-size="9" text-anchor="middle">100%</text>

  <!-- ── ALTERNATEUR ───────────────────────────────────────────── -->
  <line x1="660" y1="125" x2="700" y2="125"
        stroke="#00e676" stroke-width="6" stroke-linecap="round" opacity="0.8"/>
  <rect x="700" y="75" width="100" height="100" rx="8"
        fill="#0d1520" stroke="#00e676" stroke-width="1.5"/>
  <text x="750" y="91" fill="#3a5a7a" font-size="8" text-anchor="middle" letter-spacing="1">ALTERNATEUR</text>
  <circle cx="750" cy="120" r="20" fill="none" stroke="#00e676" stroke-width="1.5" opacity="0.7"/>
  <text x="750" y="126" fill="#00e676" font-size="14" text-anchor="middle">∿</text>
  <text x="750" y="145" fill="#00e676" font-size="12" text-anchor="middle" font-weight="700">24.0 MW</text>
  <text x="750" y="159" fill="#ffd740" font-size="10" text-anchor="middle">cosφ = 0.850</text>
  <text x="750" y="173" fill="#6a96bb" font-size="9" text-anchor="middle">η = 92.0%</text>

  <!-- ── RÉSEAU ─────────────────────────────────────────────────── -->
  <line x1="800" y1="125" x2="845" y2="125"
        stroke="#00e5ff" stroke-width="5" stroke-linecap="round"/>
  <rect x="845" y="80" width="40" height="90" rx="5"
        fill="#0d1520" stroke="#00e5ff" stroke-width="1"/>
  <line x1="865" y1="85" x2="865" y2="170" stroke="#00e5ff" stroke-width="2"/>
  <line x1="850" y1="100" x2="880" y2="100" stroke="#00e5ff" stroke-width="1.5"/>
  <line x1="855" y1="116" x2="875" y2="116" stroke="#00e5ff" stroke-width="1.5"/>
  <line x1="850" y1="100" x2="855" y2="116" stroke="#00e5ff" stroke-width="1" stroke-dasharray="2,2"/>
  <line x1="880" y1="100" x2="875" y2="116" stroke="#00e5ff" stroke-width="1" stroke-dasharray="2,2"/>
  <text x="865" y="163" fill="#00e5ff" font-size="8" text-anchor="middle">RÉSEAU</text>
  <text x="865" y="175" fill="#6a96bb" font-size="7" text-anchor="middle">10.5 kV</text>

  <!-- ── CONDENSEUR ─────────────────────────────────────────────── -->
  <line x1="535" y1="170" x2="535" y2="255"
        stroke="#00b4ff" stroke-width="5" stroke-linecap="round" opacity="0.5"/>
  <rect x="460" y="255" width="150" height="65" rx="6"
        fill="#0d1520" stroke="#00b4ff" stroke-width="1" opacity="0.8"/>
  <text x="535" y="273" fill="#3a5a7a" font-size="8" text-anchor="middle" letter-spacing="1">CONDENSEUR</text>
  <text x="535" y="291" fill="#00b4ff" font-size="11" text-anchor="middle">180 °C</text>
  <text x="535" y="307" fill="#6a96bb" font-size="9" text-anchor="middle">Vapeur BP sortie</text>

  <!-- ── RETOUR EAU ─────────────────────────────────────────────── -->
  <line x1="460" y1="287" x2="75" y2="287"
        stroke="#1e3a5f" stroke-width="3" stroke-dasharray="6,4" opacity="0.6"/>
  <line x1="75" y1="287" x2="75" y2="190"
        stroke="#1e3a5f" stroke-width="3" stroke-dasharray="6,4" opacity="0.6"/>
  <text x="268" y="302" fill="#1e3a5f" font-size="8" text-anchor="middle">
    Retour eau (circuit fermé)
  </text>

  <!-- ── LÉGENDE ────────────────────────────────────────────────── -->
  <rect x="20" y="350" width="260" height="60" rx="4"
        fill="#080c10" stroke="#1e3a5f" stroke-width="1"/>
  <text x="150" y="366" fill="#3a5a7a" font-size="8" text-anchor="middle" letter-spacing="1.5">
    LÉGENDE VANNES
  </text>
  <rect x="30" y="373" width="12" height="12" rx="2" fill="#00b4ff"/>
  <text x="48" y="383" fill="#6a96bb" font-size="9">Ouverte ≥ 80%</text>
  <rect x="105" y="373" width="12" height="12" rx="2" fill="#ffd740"/>
  <text x="123" y="383" fill="#6a96bb" font-size="9">Partielle 30–80%</text>
  <rect x="195" y="373" width="12" height="12" rx="2" fill="#ff3d57"/>
  <text x="213" y="383" fill="#6a96bb" font-size="9">Fermée &lt; 30%</text>
  <text x="30" y="403" fill="#3a5a7a" font-size="8">Rendement global :</text>
  <rect x="130" y="394" width="130" height="8" rx="3" fill="#1e3a5f"/>
  <rect x="130" y="394" width="120" height="8" rx="3" fill="#00e676"/>
  <text x="268" y="402" fill="#6a96bb" font-size="8">92.0%</text>

  <!-- ── TABLEAU PARAMÈTRES ─────────────────────────────────────── -->
  <rect x="650" y="250" width="230" height="120" rx="4"
        fill="#080c10" stroke="#1e3a5f" stroke-width="1"/>
  <text x="765" y="268" fill="#3a5a7a" font-size="8" text-anchor="middle" letter-spacing="1.5">
    PARAMÈTRES SYSTÈME
  </text>
  <line x1="660" y1="273" x2="870" y2="273" stroke="#1e3a5f" stroke-width="1"/>
  <text x="660" y="289" fill="#3a5a7a" font-size="9">Pression BP</text>
  <text x="870" y="289" fill="#6a96bb" font-size="9" text-anchor="end">4.20 bar</text>
  <text x="660" y="304" fill="#3a5a7a" font-size="9">Température BP</text>
  <text x="870" y="304" fill="#6a96bb" font-size="9" text-anchor="end">180.0 °C</text>
  <text x="660" y="319" fill="#3a5a7a" font-size="9">Débit vapeur HP</text>
  <text x="870" y="319" fill="#6a96bb" font-size="9" text-anchor="end">115.0 T/h</text>
  <text x="660" y="334" fill="#3a5a7a" font-size="9">Vitesse turbine</text>
  <text x="870" y="334" fill="#aa80ff" font-size="9" text-anchor="end">6435 RPM</text>
  <text x="660" y="349" fill="#3a5a7a" font-size="9">Puissance active</text>
  <text x="870" y="349" fill="#00e676" font-size="9" text-anchor="end">24.00 MW</text>
  <text x="660" y="364" fill="#3a5a7a" font-size="9">Facteur puissance</text>
  <text x="870" y="364" fill="#ffd740" font-size="9" text-anchor="end">0.8500</text>

</svg>